<svg width="34" height="34" viewBox="0 0 34 34" fill="none" xmlns="http://www.w3.org/2000/svg">
<path d="M25.2913 9.61183C24.7805 9.10083 24.1741 8.69547 23.5066 8.41891C22.8392 8.14235 22.1238 8 21.4013 8C20.6788 8 19.9634 8.14235 19.2959 8.41891C18.6285 8.69547 18.022 9.10083 17.5113 9.61183L16.4513 10.6718L15.3913 9.61183C14.3596 8.58013 12.9603 8.00053 11.5013 8.00053C10.0423 8.00053 8.64298 8.58013 7.61129 9.61183C6.5796 10.6435 6 12.0428 6 13.5018C6 14.9609 6.5796 16.3601 7.61129 17.3918L8.67129 18.4518L16.4513 26.2318L24.2313 18.4518L25.2913 17.3918C25.8023 16.8811 26.2076 16.2746 26.4842 15.6072C26.7608 14.9397 26.9031 14.2243 26.9031 13.5018C26.9031 12.7793 26.7608 12.0639 26.4842 11.3965C26.2076 10.729 25.8023 10.1226 25.2913 9.61183Z" fill="#D9D9D9" fill-opacity="0.5" stroke="white" stroke-width="2" stroke-linecap="round" stroke-linejoin="round"/>
</svg>
