<svg width="35" height="34" viewBox="0 0 35 34" fill="none" xmlns="http://www.w3.org/2000/svg">
<path d="M9.48162 14.1564C9.48032 13.2302 9.66227 12.3129 10.017 11.4573C10.3717 10.6017 10.8922 9.82479 11.5485 9.17123C12.2048 8.51768 12.9839 8.00042 13.8409 7.64926C14.6979 7.29809 15.616 7.11996 16.5422 7.12511C20.4094 7.15441 23.5051 10.3673 23.5051 14.2442V14.9376C23.5051 18.4337 24.2375 20.465 24.882 21.5782C24.9505 21.6968 24.9866 21.8313 24.9867 21.9682C24.9868 22.1051 24.9509 22.2396 24.8827 22.3583C24.8145 22.477 24.7162 22.5756 24.5978 22.6444C24.4795 22.7132 24.3451 22.7496 24.2082 22.7501H8.7785C8.64159 22.7496 8.50722 22.7132 8.38884 22.6444C8.27046 22.5756 8.17222 22.477 8.10398 22.3583C8.03574 22.2396 7.99988 22.1051 8 21.9682C8.00012 21.8313 8.03622 21.6968 8.10467 21.5782C8.7492 20.465 9.48162 18.4337 9.48162 14.9376V14.1564Z" stroke="black" stroke-width="2" stroke-linecap="round" stroke-linejoin="round"/>
<path d="M13.3682 22.75V23.5312C13.3682 24.3601 13.6974 25.1549 14.2835 25.741C14.8695 26.327 15.6644 26.6562 16.4932 26.6562C17.322 26.6562 18.1168 26.327 18.7029 25.741C19.2889 25.1549 19.6182 24.3601 19.6182 23.5312V22.75" stroke="black" stroke-width="2" stroke-linecap="round" stroke-linejoin="round"/>
<circle cx="24.9932" cy="6" r="2" fill="#E9446B"/>
</svg>
